<svg width="23" height="20" viewBox="0 0 23 20" fill="none" xmlns="http://www.w3.org/2000/svg">
<path fill-rule="evenodd" clip-rule="evenodd" d="M3.26498 0H19.735C21.5489 0 23 1.39961 23 3.07914V13.4362C23 15.1158 21.5489 16.5154 19.735 16.5154H17.5584V19.4546C17.5584 20.0844 16.6877 20.0844 16.3975 19.8744L12.9148 16.5154H3.26498C1.4511 16.5154 0 15.1158 0 13.4362V3.07914C0 1.39961 1.4511 0 3.26498 0ZM7.47319 7.27796C8.05363 7.27796 8.48896 7.69785 8.48896 8.25769C8.48896 8.81753 8.05363 9.23742 7.47319 9.23742C6.89274 9.23742 6.38486 8.81753 6.38486 8.25769C6.38486 7.69785 6.89274 7.27796 7.47319 7.27796ZM15.5994 7.27796C16.1798 7.27796 16.6151 7.69785 16.6151 8.25769C16.6151 8.81753 16.1798 9.23742 15.5994 9.23742C15.0189 9.23742 14.511 8.81753 14.511 8.25769C14.511 7.69785 15.0189 7.27796 15.5994 7.27796ZM11.5363 7.27796C12.1167 7.27796 12.5521 7.69785 12.5521 8.25769C12.5521 8.81753 12.1167 9.23742 11.5363 9.23742C10.9558 9.23742 10.4479 8.81753 10.4479 8.25769C10.4479 7.69785 10.9558 7.27796 11.5363 7.27796ZM15.8896 17.1452V14.9758H19.735C20.6057 14.9758 21.3312 14.276 21.3312 13.4362V3.07914C21.3312 2.23937 20.6057 1.53957 19.735 1.53957H3.26498C2.39432 1.53957 1.66877 2.23937 1.66877 3.07914V13.4362C1.66877 14.276 2.39432 14.9758 3.26498 14.9758H13.5678L15.8896 17.1452Z" fill="black"/>
</svg>
