<svg width="37" height="21" viewBox="0 0 37 21" fill="none" xmlns="http://www.w3.org/2000/svg">
<path d="M18.1328 20.2489C8.29223 20.2489 0.4693 10.9255 0.1413 10.5282C0.0504454 10.4182 0 10.2741 0 10.1244C0 9.97481 0.0504454 9.83065 0.1413 9.72066C0.4693 9.32342 8.29223 0 18.1328 0C27.9733 0 35.7962 9.32342 36.1242 9.72066C36.2151 9.83065 36.2655 9.97481 36.2655 10.1244C36.2655 10.2741 36.2151 10.4182 36.1242 10.5282C35.7962 10.9255 27.9733 20.2489 18.1328 20.2489ZM1.27943 10.1244C2.9061 11.9177 9.8997 19.0578 18.1328 19.0578C26.3658 19.0578 33.3589 11.9177 34.9861 10.1244C33.3589 8.33123 26.3653 1.19111 18.1328 1.19111C9.90023 1.19111 2.90663 8.33123 1.27943 10.1244Z" fill="black"/>
<path d="M18.1328 16.08C17.0779 16.08 16.0468 15.7307 15.1697 15.0763C14.2927 14.4219 13.6091 13.4918 13.2054 12.4035C12.8017 11.3153 12.6961 10.1178 12.9019 8.96257C13.1077 7.80731 13.6157 6.74613 14.3615 5.91323C15.1074 5.08033 16.0577 4.51312 17.0923 4.28332C18.1269 4.05352 19.1992 4.17146 20.1738 4.62223C21.1483 5.07299 21.9812 5.83633 22.5673 6.81571C23.1533 7.7951 23.4661 8.94655 23.4661 10.1244C23.4646 11.7034 22.9022 13.2172 21.9023 14.3337C20.9024 15.4502 19.5468 16.0783 18.1328 16.08ZM18.1328 5.36C17.2889 5.36 16.464 5.63943 15.7623 6.16295C15.0607 6.68648 14.5138 7.43058 14.1909 8.30117C13.868 9.17176 13.7835 10.1297 13.9481 11.0539C14.1127 11.9782 14.5191 12.8271 15.1158 13.4934C15.7125 14.1597 16.4727 14.6135 17.3004 14.7973C18.128 14.9812 18.9859 14.8868 19.7656 14.5262C20.5452 14.1656 21.2116 13.5549 21.6804 12.7714C22.1492 11.9879 22.3994 11.0668 22.3994 10.1244C22.3982 8.86127 21.9482 7.65024 21.1484 6.75704C20.3485 5.86384 19.264 5.36142 18.1328 5.36Z" fill="black"/>
</svg>
