<?xml version="1.0" standalone="no"?>
<!DOCTYPE svg PUBLIC "-//W3C//DTD SVG 20010904//EN"
 "http://www.w3.org/TR/2001/REC-SVG-20010904/DTD/svg10.dtd">
<svg version="1.0" xmlns="http://www.w3.org/2000/svg"
 width="640.000000pt" height="1280.000000pt" viewBox="0 0 640.000000 1280.000000"
 preserveAspectRatio="xMidYMid meet">
<g transform="translate(0.000000,1280.000000) scale(0.100000,-0.100000)"
fill="#000000" stroke="none">
<path d="M2975 12780 c-241 -37 -396 -83 -580 -169 -508 -241 -891 -708 -1035
-1267 -62 -241 -60 -149 -60 -2244 0 -1678 2 -1923 16 -2021 109 -784 675
-1427 1419 -1612 183 -46 239 -52 470 -51 199 0 232 3 348 27 372 79 674 238
940 496 329 319 529 724 587 1191 14 116 14 3810 0 3935 -71 621 -428 1172
-956 1476 -348 201 -794 293 -1149 239z"/>
<path d="M537 10134 c-11 -12 -8 -3175 3 -3299 49 -530 247 -1022 577 -1435
88 -111 295 -318 403 -404 253 -200 516 -346 806 -446 112 -39 316 -92 404
-105 25 -4 53 -11 63 -17 16 -8 17 -70 15 -1141 l-3 -1132 -90 -8 c-886 -76
-1590 -313 -1925 -647 -141 -139 -200 -261 -200 -409 0 -171 80 -318 258 -471
354 -305 1062 -530 1862 -590 80 -6 192 -15 249 -21 134 -12 348 -12 482 0 57
6 169 15 249 21 707 53 1334 231 1730 490 120 79 282 240 327 325 60 114 78
241 53 353 -27 114 -124 256 -248 358 -375 311 -1032 519 -1867 591 l-90 8 -3
1133 -2 1132 22 10 c13 5 73 19 133 30 212 42 455 127 659 230 728 369 1243
1040 1409 1835 53 254 52 201 52 1965 l0 1645 -185 0 -185 0 -5 -1650 c-6
-1807 -3 -1692 -66 -1955 -76 -319 -232 -637 -439 -895 -362 -452 -871 -739
-1475 -831 -157 -24 -463 -24 -620 0 -524 80 -963 297 -1316 653 -295 296
-516 697 -604 1093 -57 257 -54 147 -60 1935 l-5 1650 -181 3 c-99 1 -183 -1
-187 -4z"/>
</g>
</svg>
